<svg width="81" height="70" viewBox="0 0 81 70" fill="none" xmlns="http://www.w3.org/2000/svg">
<path d="M0.684863 3.78663C0.470445 3.96064 0.437687 4.27552 0.611697 4.48994L3.44735 7.98409C3.62136 8.1985 3.93624 8.23126 4.15066 8.05725C4.36508 7.88324 4.39784 7.56836 4.22383 7.35394L1.70325 4.24803L4.80916 1.72745C5.02357 1.55344 5.05633 1.23856 4.88232 1.02414C4.70831 0.809721 4.39343 0.776963 4.17901 0.950973L0.684863 3.78663ZM0.948199 4.67218C24.4247 7.11446 41.3706 12.6744 53.8256 22.9635C66.2764 33.2491 74.3052 48.3155 79.8322 69.9116L80.801 69.6637C75.2457 47.9571 67.1384 32.6641 54.4625 22.1926C41.7909 11.7245 24.6196 6.12934 1.05167 3.67755L0.948199 4.67218Z" fill="white"/>
</svg>
